<?xml version="1.0" standalone="no"?>
<!DOCTYPE svg PUBLIC "-//W3C//DTD SVG 20010904//EN"
 "http://www.w3.org/TR/2001/REC-SVG-20010904/DTD/svg10.dtd">
<svg version="1.0" xmlns="http://www.w3.org/2000/svg"
 width="500.000000pt" height="500.000000pt" viewBox="0 0 500.000000 500.000000"
 preserveAspectRatio="xMidYMid meet">
<metadata>
Created by potrace 1.14, written by Peter Selinger 2001-2017
</metadata>
<g transform="translate(0.000000,500.000000) scale(0.100000,-0.100000)"
fill="#000000" stroke="none">
<path d="M3467 4064 c-1 -1 -81 -5 -177 -9 -96 -4 -202 -8 -235 -10 -62 -4
-205 -12 -360 -20 -111 -6 -261 -14 -380 -20 -124 -7 -248 -13 -390 -20 -66
-3 -160 -7 -210 -10 -115 -7 -250 -14 -395 -21 -63 -3 -117 -7 -121 -9 -3 -3
-5 -16 -3 -30 1 -15 5 -95 9 -178 3 -84 8 -174 10 -202 2 -27 7 -122 10 -210
4 -88 8 -187 10 -220 8 -170 17 -349 20 -420 5 -122 15 -331 20 -420 2 -44 7
-138 10 -210 3 -71 8 -170 10 -220 3 -49 7 -144 10 -210 6 -125 9 -191 20
-410 4 -71 8 -164 9 -205 3 -72 4 -75 27 -74 13 1 89 5 169 9 80 3 177 8 215
10 39 2 122 7 185 10 63 3 162 8 220 10 58 3 150 7 205 10 55 2 159 7 230 11
276 13 640 25 925 29 102 2 210 4 241 4 l56 1 -3 68 c-2 37 -6 164 -9 282 -4
118 -8 242 -10 275 -2 33 -4 76 -4 96 -1 33 -3 36 -28 33 -14 -1 -94 -5 -177
-9 -83 -3 -176 -8 -206 -10 -30 -2 -104 -7 -165 -10 -60 -3 -139 -8 -175 -10
-58 -4 -120 -8 -310 -20 -30 -2 -95 -6 -145 -10 -49 -3 -112 -8 -140 -10 -27
-2 -97 -7 -155 -10 -58 -4 -108 -9 -111 -11 -3 -2 -6 2 -6 9 0 7 -3 55 -7 107
-4 52 -9 129 -11 170 -3 41 -8 96 -11 123 -6 44 -4 47 18 48 12 0 41 2 63 4
22 2 87 6 145 9 58 4 134 9 170 11 62 5 139 9 390 21 63 3 147 7 185 9 39 2
85 4 103 4 l33 1 -6 133 c-3 72 -8 195 -11 272 -3 77 -7 169 -9 205 -1 36 -3
71 -4 77 -1 9 -17 11 -53 8 -29 -2 -127 -7 -218 -10 -91 -3 -210 -7 -265 -10
-55 -2 -165 -7 -245 -10 -80 -3 -184 -7 -232 -10 -86 -5 -88 -4 -89 17 -1 13
-2 37 -3 53 -2 17 -6 105 -10 198 l-7 167 58 1 c32 1 81 2 108 4 28 2 109 6
180 10 72 3 157 8 190 10 33 3 114 7 180 10 66 4 143 8 170 10 28 1 100 6 160
9 61 4 137 9 170 11 33 3 107 8 165 11 58 4 116 7 130 8 20 2 25 7 24 27 -3
88 -32 447 -39 499 -2 14 -7 50 -10 80 -9 85 -9 85 -60 86 -25 0 -47 -1 -48
-2z"/>
</g>
</svg>
