<svg fill="none" height="23" viewBox="0 0 22 23" width="22" xmlns="http://www.w3.org/2000/svg"><g fill="#000"><path d="m11 1.98275c2.9425 0 3.2905-.00001 4.4506.06327.6961.00064 1.386.12934 2.0355.37968.4799.17244.9132.45405 1.2656.82262.3723.34932.6545.78353.8226 1.26558.25.65323.3787 1.3466.3797 2.04602 0 1.16012.0633 1.50816.0633 4.44008 0 2.9319 0 3.2905-.0633 4.4506-.001.6995-.1297 1.3928-.3797 2.046-.1738.4793-.4552.9122-.8226 1.2656-.3553.3652-.7877.6462-1.2656.8227-.6524.2397-1.3405.368-2.0355.3796-1.1601.0528-1.5081.0633-4.4506.0633-2.94248 0-3.29052 0-4.45063-.0633-.69498-.0116-1.38305-.1399-2.03547-.3796-.47791-.1765-.91031-.4575-1.26558-.8227-.36402-.3561-.64492-.7883-.82262-1.2656-.24999-.6532-.37866-1.3465-.37968-2.046-.05273-1.1601-.06329-1.5081-.06329-4.4506 0-2.94247.00001-3.27996.06329-4.44008.00102-.69942.12969-1.39279.37968-2.04602.17244-.4799.45405-.91316.82262-1.26558.35242-.36857.78568-.65018 1.26558-.82262.64946-.25034 1.33943-.37904 2.03547-.37968 1.16011-.05273 1.50815-.06327 4.45063-.06327zm0-1.98275c-2.98467 0-3.36434.00000547-4.53501.0632845-.91126.0203287-1.81287.1913815-2.66826.5062275-.73507.279135-1.40076.714538-1.95109 1.276128-.56159.55033-.997001 1.21604-1.276136 1.95111-.314846.85538-.4858988 1.75699-.5062276 2.66826-.0527325 1.17066-.0632764 1.55034-.0632764 4.53499 0 2.9847-.00000257 3.3643.0632764 4.535.0224117.9145.1933826 1.8192.5062276 2.6788.281955.7305.717096 1.3922 1.276136 1.9406.54929.5654 1.21506 1.0044 1.95109 1.2866.85398.3199 1.75646.4911 2.66826.5063 1.17067.0527 1.55034.0738 4.53501.0738 2.9847 0 3.3643 0 4.535-.0738.9151-.0164 1.8208-.1876 2.6788-.5063.7305-.2819 1.3922-.7171 1.9406-1.2761.559-.5483.9941-1.21 1.2761-1.9406.3128-.8595.4838-1.7643.5062-2.6788.0527-1.1706.0633-1.5397.0633-4.535 0-2.99516 0-3.36429-.0633-4.53495-.0203-.91126-.1914-1.81288-.5062-2.66826-.2791-.73507-.7145-1.40078-1.2761-1.95111-.5484-.55904-1.2101-.994164-1.9406-1.276119-.8596-.312845-1.7643-.4838241-2.6788-.5062358-1.1707 0-1.5503-.0632764-4.535-.0632764"/><path d="m11.0003 5.34723c-.7423 0-1.47739.14622-2.16324.4303-.68584.28409-1.30901.70047-1.83394 1.22539-.52492.52493-.94132 1.1481-1.22541 1.83394-.28408.68585-.4303 1.42094-.4303 2.16334 0 .7423.14622 1.4774.4303 2.1632.28409.6859.70049 1.309 1.22541 1.834.52493.5249 1.1481.9413 1.83394 1.2254.68585.284 1.42094.4303 2.16324.4303.7424 0 1.4775-.1463 2.1633-.4303.6859-.2841 1.309-.7005 1.834-1.2254.5249-.525.9413-1.1481 1.2254-1.834.284-.6858.4303-1.4209.4303-2.1632 0-.7424-.1463-1.47749-.4303-2.16334-.2841-.68584-.7005-1.30901-1.2254-1.83394-.525-.52492-1.1481-.9413-1.834-1.22539-.6858-.28408-1.4209-.4303-2.1633-.4303zm0 9.32307c-.9734 0-1.90687-.3867-2.59517-1.0749-.68829-.6883-1.07497-1.6219-1.07497-2.5952 0-.9734.38668-1.90697 1.07497-2.59527.6883-.68829 1.62177-1.07497 2.59517-1.07497s1.907.38668 2.5953 1.07497c.6882.6883 1.0749 1.62187 1.0749 2.59527 0 .9733-.3867 1.9069-1.0749 2.5952-.6883.6882-1.6219 1.0749-2.5953 1.0749z"/><path d="m18.193 5.12593c0 .34964-.1389.68495-.3861.93218-.2472.24724-.5826.38613-.9322.38613s-.6849-.13889-.9322-.38613c-.2472-.24723-.3861-.58254-.3861-.93218s.1389-.68495.3861-.93218c.2473-.24724.5826-.38613.9322-.38613s.685.13889.9322.38613c.2472.24723.3861.58254.3861.93218z"/></g></svg>