<svg fill="none" height="22" viewBox="0 0 22 22" width="22" xmlns="http://www.w3.org/2000/svg"><g clip-rule="evenodd" fill="#dfd6c7" fill-rule="evenodd"><path d="m21.9895 10.4522c-.0824-2.80627-1.2575-5.46937-3.2749-7.4218s-4.7175-3.03978931-7.5249-3.03033891c-2.77235-.00861289-5.44117 1.05233891-7.4509 2.96197891s-3.205506 4.52082-3.338412 7.28996v.4636c-.001389 1.9544.534393 3.8716 1.548832 5.5421l-1.94922 5.7424 5.98467-1.8966c1.59731.8801 3.39181 1.3405 5.21553 1.3381 2.8541.0084 5.5948-1.1166 7.6198-3.1278 2.0251-2.0112 3.1688-4.7441 3.18-7.5982zm-10.7998 9.272c-1.7748.0076-3.51222-.5093-4.99429-1.4856l-3.48756 1.1063 1.13793-3.34c-1.12844-1.5248-1.73781-3.3714-1.7385-5.2682.00212-.2923.01971-.5842.05269-.87457.22976-2.23364 1.28066-4.30241 2.949-5.80527 1.66834-1.50287 3.83525-2.33278 6.08073-2.32883 2.2772-.00513 4.4728.84738 6.15 2.38784 1.6771 1.54047 2.7127 3.65592 2.9007 5.92543v.6954c-.0167 2.3894-.9776 4.6753-2.6731 6.359-1.6956 1.6837-3.9881 2.6286-6.3776 2.6285z"/><path d="m16.1419 12.8966c-.2739-.137-1.5699-.7691-1.8123-.8534-.2423-.0843-.4214-.137-.6005.1264s-.6849.8535-.8324 1.0536c-.1475.2002-.3056.1897-.5795.0633-.7711-.3135-1.4836-.7552-2.1073-1.3065-.57607-.5275-1.06975-1.1384-1.46454-1.8123-.02894-.0425-.04896-.0904-.05881-.1409-.00985-.05045-.00934-.10238.0015-.15264s.03178-.0978.06156-.13971c.02977-.04192.06777-.07734.11165-.10412.1159-.12644.26341-.30554.38985-.46359l.10537-.12645c.05897-.1021.11174-.20765.15804-.31609.03876-.06921.05911-.14721.05911-.22653s-.02035-.15732-.05911-.22653c-.07376-.13697-.60058-1.42242-.82184-1.94924-.22127-.52682-.44254-.44253-.60058-.44253h-.50575c-.13384.00275-.26567.03319-.38717.08941s-.23003.13698-.31876.23722c-.29826.28089-.53474.62083-.69438.99816-.15964.37732-.23893.78376-.23283 1.19341.00241.30356.04855.6052.13698.8956.20725.6583.52818 1.27523.94827 1.82283 1.10521 1.721 2.67132 3.0973 4.52014 3.9722 2.6973 1.0536 2.6973.6954 3.1609.6532.3688-.0706.7183-.2189 1.0254-.4351.307-.2162.5645-.4953.7553-.8187.1719-.3904.2268-.8223.158-1.2433-.0738-.1686-.2529-.2318-.5163-.3477z"/></g></svg>